<?xml version="1.0" encoding="UTF-8" standalone="no"?>
<svg
   xmlns:svg="http://www.w3.org/2000/svg"
   xmlns="http://www.w3.org/2000/svg"
   xmlns:sodipodi="http://sodipodi.sourceforge.net/DTD/sodipodi-0.dtd"
   xmlns:inkscape="http://www.inkscape.org/namespaces/inkscape"
   class="ck ck-icon ck-button__icon"
   viewBox="0 0 20 20"
   version="1.1"
   id="svg10"
   sodipodi:docname="code-block.svg"
   inkscape:version="0.92.3 (2405546, 2018-03-11)">
  <defs
     id="defs14" />
  <sodipodi:namedview
     pagecolor="#ffffff"
     bordercolor="#666666"
     borderopacity="1"
     objecttolerance="10"
     gridtolerance="10"
     guidetolerance="10"
     inkscape:pageopacity="0"
     inkscape:pageshadow="2"
     inkscape:window-width="640"
     inkscape:window-height="480"
     id="namedview12"
     showgrid="false"
     inkscape:zoom="47.2"
     inkscape:cx="5.4324409"
     inkscape:cy="12.256633"
     inkscape:current-layer="svg10" />
  <g
     id="g8"
     style="fill:none;fill-rule:evenodd"
     transform="translate(0.1059314,-0.38135672)">
    <g
       id="g6"
       style="fill:#353535">
      <g
         transform="translate(2,5.6)"
         id="g4">
        <path
           d="M 10.5,0.1 15.7,4 v 1.3 l -5.6,4 C 10,9.5 9.8,9.5 9.6,9.5 9.3,9.4 9,8.8 9,8.5 L 9.3,8.1 14,4.6 9.5,1.4 9.3,1.2 C 9.2,0.9 9.2,0.6 9.3,0.4 9.5,0.2 9.8,0 10.1,0 a 0.8,0.8 0 0 1 0.4,0.1 z M 5.3,0.1 0,4 v 1.3 l 5.6,4 C 5.7,9.5 5.9,9.5 6.1,9.5 6.4,9.4 6.8,8.8 6.7,8.5 6.7,8.4 6.7,8.2 6.5,8.1 L 1.5,4.6 6.2,1.4 6.4,1.2 C 6.5,0.9 6.5,0.6 6.4,0.4 6.2,0.2 5.9,0 5.6,0 A 0.8,0.8 0 0 0 5.3,0.1 Z"
           id="path2"
           inkscape:connector-curvature="0" />
      </g>
    </g>
  </g>
  <path
     style="color:#000000;font-style:normal;font-variant:normal;font-weight:normal;font-stretch:normal;font-size:medium;line-height:normal;font-family:sans-serif;font-variant-ligatures:normal;font-variant-position:normal;font-variant-caps:normal;font-variant-numeric:normal;font-variant-alternates:normal;font-feature-settings:normal;text-indent:0;text-align:start;text-decoration:none;text-decoration-line:none;text-decoration-style:solid;text-decoration-color:#000000;letter-spacing:normal;word-spacing:normal;text-transform:none;writing-mode:lr-tb;direction:ltr;text-orientation:mixed;dominant-baseline:auto;baseline-shift:baseline;text-anchor:start;white-space:normal;shape-padding:0;clip-rule:nonzero;display:inline;overflow:visible;visibility:visible;opacity:1;isolation:auto;mix-blend-mode:normal;color-interpolation:sRGB;color-interpolation-filters:linearRGB;solid-color:#000000;solid-opacity:1;vector-effect:none;fill:#353535;fill-opacity:1;fill-rule:nonzero;stroke:none;stroke-width:1.03549457;stroke-linecap:butt;stroke-linejoin:miter;stroke-miterlimit:4;stroke-dasharray:none;stroke-dashoffset:0;stroke-opacity:1;color-rendering:auto;image-rendering:auto;shape-rendering:auto;text-rendering:auto;enable-background:accumulate"
     d="M 0.72851562,0.72851562 V 1.2460938 19.271484 H 19.271484 V 0.72851562 Z M 1.7636719,1.7636719 H 18.236328 V 18.236328 H 1.7636719 Z"
     id="rect3722"
     inkscape:connector-curvature="0" />
</svg>
